<?xml version="1.0" encoding="UTF-8"?>
<svg width="14px" height="13px" viewBox="0 0 14 13" version="1.1" xmlns="http://www.w3.org/2000/svg" xmlns:xlink="http://www.w3.org/1999/xlink">
    <!-- Generator: Sketch 60 (88103) - https://sketch.com -->
    <title>instagram</title>
    <desc>Created with Sketch.</desc>
    <defs>
        <polygon id="path-1" points="0 0.0344145455 12.9662158 0.0344145455 12.9662158 12.9997479 0 12.9997479"></polygon>
    </defs>
    <g id="PHASE-1-FINAL" stroke="none" stroke-width="1" fill="none" fill-rule="evenodd">
        <g id="HOME—DESKTOP-Copy-9" transform="translate(-611.000000, -2545.000000)">
            <g id="Group-5" transform="translate(0.000000, 1621.000000)">
                <g id="Group-4" transform="translate(611.000000, 923.000000)">
                    <g id="instagram" transform="translate(0.500000, 1.000000)">
                        <mask id="mask-2" fill="white">
                            <use xlink:href="#path-1"></use>
                        </mask>
                        <g id="Clip-2"></g>
                        <path d="M10.4929067,2.50772364 C10.64544,2.65899636 10.7210764,2.84304485 10.7210764,3.05608727 C10.7210764,3.2703903 10.64544,3.45317818 10.4929067,3.60445091 C10.3403733,3.75698424 10.1575855,3.83262061 9.94328242,3.83262061 C9.73024,3.83262061 9.54745212,3.75698424 9.39491879,3.60445091 C9.24364606,3.45317818 9.1680097,3.2703903 9.1680097,3.05608727 C9.1680097,2.84304485 9.24364606,2.65899636 9.39491879,2.50772364 C9.54745212,2.3551903 9.73024,2.27955394 9.94328242,2.27955394 C10.1575855,2.27955394 10.3403733,2.3551903 10.4929067,2.50772364 M8.01077333,8.04556606 C8.43307636,7.62326303 8.64359758,7.11397818 8.64359758,6.51771152 C8.64359758,5.92144485 8.43307636,5.41089939 8.01077333,4.98985697 C7.5884703,4.56755394 7.07918545,4.35577212 6.48291879,4.35577212 C5.88665212,4.35577212 5.37736727,4.56755394 4.95506424,4.98985697 C4.53276121,5.41089939 4.32224,5.92144485 4.32224,6.51771152 C4.32224,7.11397818 4.53276121,7.62326303 4.95506424,8.04556606 C5.37736727,8.46786909 5.88665212,8.6783903 6.48291879,8.6783903 C7.07918545,8.6783903 7.5884703,8.46786909 8.01077333,8.04556606 M8.83899152,4.16163879 C9.48568242,4.8095903 9.80965818,5.59494788 9.80965818,6.51771152 C9.80965818,7.44047515 9.48568242,8.22583273 8.83899152,8.87252364 C8.19104,9.51921455 7.40568242,9.8431903 6.48291879,9.8431903 C5.56015515,9.8431903 4.77479758,9.51921455 4.12810667,8.87252364 C3.48141576,8.22583273 3.15744,7.44047515 3.15744,6.51771152 C3.15744,5.59494788 3.48141576,4.8095903 4.12810667,4.16163879 C4.77479758,3.51494788 5.56015515,3.19097212 6.48291879,3.19097212 C7.40568242,3.19097212 8.19104,3.51494788 8.83899152,4.16163879 M7.1296097,1.19417212 C6.73756121,1.19795394 6.52199758,1.19921455 6.48291879,1.19921455 C6.44384,1.19921455 6.22827636,1.19795394 5.83748848,1.19417212 C5.44670061,1.19291152 5.14919758,1.19291152 4.94750061,1.19417212 C4.74328242,1.19795394 4.47225212,1.20551758 4.13188848,1.22064485 C3.79152485,1.23451152 3.50158545,1.26224485 3.26333091,1.30384485 C3.02381576,1.34670545 2.82211879,1.39965091 2.65950061,1.46016 C2.37838545,1.57361455 2.13004606,1.73623273 1.91574303,1.95053576 C1.70270061,2.16483879 1.53882182,2.41191758 1.42662788,2.69303273 C1.36485818,2.85691152 1.31317333,3.05734788 1.27031273,3.29686303 C1.22745212,3.53637818 1.19971879,3.82505697 1.18585212,4.16542061 C1.17198545,4.50704485 1.16316121,4.77807515 1.16064,4.98103273 C1.15811879,5.1839903 1.15811879,5.48023273 1.16064,5.87102061 C1.16316121,6.26306909 1.16568242,6.47737212 1.16568242,6.51771152 C1.16568242,6.5567903 1.16316121,6.77235394 1.16064,7.16314182 C1.15811879,7.5539297 1.15811879,7.85143273 1.16064,8.0531297 C1.16316121,8.25608727 1.17198545,8.52711758 1.18585212,8.86748121 C1.19971879,9.20910545 1.22745212,9.49778424 1.27031273,9.73729939 C1.31317333,9.97681455 1.36485818,10.1772509 1.42662788,10.3411297 C1.53882182,10.6222448 1.70270061,10.8705842 1.91574303,11.0836267 C2.13004606,11.2979297 2.37838545,11.4618085 2.65950061,11.5740024 C2.82211879,11.6357721 3.02381576,11.687457 3.26333091,11.729057 C3.50158545,11.7719176 3.79152485,11.8009115 4.13188848,11.8147782 C4.47225212,11.8286448 4.74328242,11.8362085 4.94750061,11.8399903 C5.14919758,11.8425115 5.44670061,11.8425115 5.83748848,11.8399903 C6.22827636,11.8362085 6.44384,11.8349479 6.48291879,11.8349479 C6.52199758,11.8349479 6.73756121,11.8362085 7.1296097,11.8399903 C7.52039758,11.8425115 7.81664,11.8425115 8.01959758,11.8399903 C8.22255515,11.8362085 8.49358545,11.8286448 8.83394909,11.8147782 C9.17431273,11.8009115 9.46425212,11.7719176 9.70376727,11.729057 C9.94202182,11.687457 10.1437188,11.6357721 10.3075976,11.5740024 C10.5887127,11.4618085 10.8357915,11.2979297 11.0500945,11.0836267 C11.263137,10.8705842 11.4270158,10.6222448 11.5392097,10.3411297 C11.6009794,10.1772509 11.6539248,9.97681455 11.6955248,9.73729939 C11.7383855,9.49778424 11.7661188,9.20910545 11.7799855,8.86748121 C11.7938521,8.52711758 11.8026764,8.25608727 11.8051976,8.0531297 C11.8077188,7.85143273 11.8077188,7.5539297 11.8051976,7.16314182 C11.8026764,6.77235394 11.8014158,6.5567903 11.8014158,6.51771152 C11.8014158,6.47737212 11.8026764,6.26306909 11.8051976,5.87102061 C11.8077188,5.48023273 11.8077188,5.1839903 11.8051976,4.98103273 C11.8026764,4.77807515 11.7938521,4.50704485 11.7799855,4.16542061 C11.7661188,3.82505697 11.7383855,3.53637818 11.6955248,3.29686303 C11.6539248,3.05734788 11.6009794,2.85691152 11.5392097,2.69303273 C11.4270158,2.41191758 11.263137,2.16483879 11.0500945,1.95053576 C10.8357915,1.73623273 10.5887127,1.57361455 10.3075976,1.46016 C10.1437188,1.39965091 9.94202182,1.34670545 9.70376727,1.30384485 C9.46425212,1.26224485 9.17431273,1.23451152 8.83394909,1.22064485 C8.49358545,1.20551758 8.22255515,1.19795394 8.01959758,1.19417212 C7.81664,1.19291152 7.52039758,1.19291152 7.1296097,1.19417212 M12.9662158,6.51771152 C12.9662158,7.80605091 12.9523491,8.69856 12.9246158,9.19271758 C12.8678885,10.3638206 12.5187006,11.2701964 11.8770521,11.9105842 C11.2354036,12.5534933 10.3302885,12.9014206 9.15918545,12.9581479 C8.66376727,12.9858812 7.77125818,12.9997479 6.48291879,12.9997479 C5.19457939,12.9997479 4.3020703,12.9858812 3.80665212,12.9581479 C2.6368097,12.9014206 1.73043394,12.5534933 1.08878545,11.9105842 C0.44713697,11.2701964 0.0979490909,10.3638206 0.0424824242,9.19271758 C0.0134884848,8.69856 -0.000378181818,7.80605091 -0.000378181818,6.51771152 C-0.000378181818,5.22811152 0.0134884848,4.33686303 0.0424824242,3.84144485 C0.0979490909,2.67034182 0.44713697,1.76522667 1.08878545,1.12231758 C1.73043394,0.481929697 2.6368097,0.132741818 3.80665212,0.0760145455 C4.3020703,0.0482812121 5.19457939,0.0344145455 6.48291879,0.0344145455 C7.77125818,0.0344145455 8.66376727,0.0482812121 9.15918545,0.0760145455 C10.3302885,0.132741818 11.2354036,0.481929697 11.8770521,1.12231758 C12.5187006,1.76522667 12.8678885,2.67034182 12.9246158,3.84144485 C12.9523491,4.33686303 12.9662158,5.22811152 12.9662158,6.51771152" id="Fill-1" fill="#5B574E" mask="url(#mask-2)"></path>
                    </g>
                </g>
            </g>
        </g>
    </g>
</svg>