<svg xmlns="http://www.w3.org/2000/svg" width="22.206" height="22.2" viewBox="0 0 22.206 22.2">
  <g id="shopping-cart" data-name="shopping-cart" transform="translate(0.103 0.1)">
    <g id="Group_3" data-name="Group 3">
      <path id="Fill_1" data-name="Fill 1" d="M21.541,22H.458a.456.456,0,0,1-.434-.6L4.608,7.646a.455.455,0,0,1,.433-.313H6.416V3.667C6.416,1.508,8.112,0,10.541,0h.917c2.429,0,4.125,1.508,4.125,3.667V7.333h1.375a.462.462,0,0,1,.436.313L21.976,21.4a.456.456,0,0,1-.436.6ZM5.371,8.25,1.094,21.083H20.905L16.628,8.25H15.583v1.833h-.916V8.25H7.333v1.833H6.416V8.25ZM10.541.917c-1.6,0-3.208.85-3.208,2.75V7.333h7.333V3.667c0-1.9-1.611-2.75-3.208-2.75Z" fill="#b3a091" stroke="#b3a091" stroke-miterlimit="10" stroke-width="0.2"/>
    </g>
  </g>
</svg>
