<?xml version="1.0" encoding="UTF-8"?>
<svg width="17px" height="11px" viewBox="0 0 17 11" version="1.1" xmlns="http://www.w3.org/2000/svg" xmlns:xlink="http://www.w3.org/1999/xlink">
    <!-- Generator: Sketch 60 (88103) - https://sketch.com -->
    <title>youtube</title>
    <desc>Created with Sketch.</desc>
    <defs>
        <polygon id="path-1" points="-9.11271059e-13 8.79296636e-14 15.5894838 8.79296636e-14 15.5894838 10.8798462 -9.11271059e-13 10.8798462"></polygon>
    </defs>
    <g id="PHASE-1-FINAL" stroke="none" stroke-width="1" fill="none" fill-rule="evenodd">
        <g id="HOME—DESKTOP-Copy-9" transform="translate(-811.000000, -2546.000000)">
            <g id="Group-5" transform="translate(0.000000, 1621.000000)">
                <g id="Group-4" transform="translate(611.000000, 923.000000)">
                    <g id="youtube" transform="translate(200.500000, 2.000000)">
                        <mask id="mask-2" fill="white">
                            <use xlink:href="#path-1"></use>
                        </mask>
                        <g id="Clip-12"></g>
                        <path d="M11.1349744,5.43992308 C11.1349744,5.2305 11.0479316,5.07692308 10.8738462,4.98046154 L6.42037607,2.26176923 C6.23979487,2.14753846 6.0514188,2.14246154 5.85524786,2.244 C5.66297436,2.34553846 5.56683761,2.50419231 5.56683761,2.71996154 L5.56683761,8.15988462 C5.56683761,8.37565385 5.66297436,8.53430769 5.85524786,8.63584615 C5.94748718,8.68153846 6.03712821,8.70311538 6.12417094,8.70311538 C6.23979487,8.70311538 6.33852991,8.67519231 6.42037607,8.61807692 L10.8738462,5.89811538 C11.0479316,5.80292308 11.1349744,5.64934615 11.1349744,5.43992308 M15.5806496,4.16561538 C15.5858462,4.47023077 15.5897436,4.89542308 15.5897436,5.43992308 C15.5897436,5.98442308 15.5858462,6.40834615 15.5806496,6.71423077 C15.5741538,7.02138462 15.5494701,7.40723077 15.5065983,7.87430769 C15.4637265,8.34265385 15.3974701,8.76023077 15.3104274,9.12830769 C15.218188,9.54207692 15.0181197,9.89111538 14.7102222,10.1741538 C14.4036239,10.4571923 14.0437607,10.6221923 13.6319316,10.6666154 C12.3444786,10.8087692 10.398359,10.8798462 7.79487179,10.8798462 C5.19008547,10.8798462 3.24396581,10.8087692 1.95781197,10.6666154 C1.54468376,10.6221923 1.18352137,10.4571923 0.874324786,10.1741538 C0.56382906,9.89111538 0.362461538,9.54207692 0.268923077,9.12830769 C0.188376068,8.76023077 0.126017094,8.34265385 0.0818461538,7.87430769 C0.038974359,7.40723077 0.0142905983,7.02138462 0.00909401709,6.71423077 C0.0025982906,6.40834615 -2.82440737e-13,5.98442308 -2.82440737e-13,5.43992308 C-2.82440737e-13,4.89542308 0.0025982906,4.47023077 0.00909401709,4.16561538 C0.0142905983,3.85846154 0.038974359,3.47261538 0.0818461538,3.00553846 C0.126017094,2.53719231 0.190974359,2.11961538 0.278017094,1.75153846 C0.37025641,1.33776923 0.570324786,0.988730769 0.878222222,0.705692308 C1.18611966,0.422653846 1.54468376,0.257653846 1.95781197,0.213230769 C3.24396581,0.0710769231 5.19008547,8.79296636e-14 7.79487179,8.79296636e-14 C10.398359,8.79296636e-14 12.3444786,0.0710769231 13.6319316,0.213230769 C14.0437607,0.257653846 14.4049231,0.422653846 14.7154188,0.705692308 C15.0259145,0.988730769 15.2259829,1.33776923 15.3195214,1.75153846 C15.4013675,2.11961538 15.4637265,2.53719231 15.5065983,3.00553846 C15.5494701,3.47261538 15.5741538,3.85846154 15.5806496,4.16561538" id="Fill-11" fill="#5B574E" mask="url(#mask-2)"></path>
                    </g>
                </g>
            </g>
        </g>
    </g>
</svg>