<?xml version="1.0" encoding="UTF-8" standalone="no"?>
<svg
   xmlns:dc="http://purl.org/dc/elements/1.1/"
   xmlns:cc="http://creativecommons.org/ns#"
   xmlns:rdf="http://www.w3.org/1999/02/22-rdf-syntax-ns#"
   xmlns:svg="http://www.w3.org/2000/svg"
   xmlns="http://www.w3.org/2000/svg"
   viewBox="0 0 1233.12 585.88"
   height="585.88"
   width="1233.12"
   xml:space="preserve"
   id="svg2"
   version="1.1"><metadata
     id="metadata8"><rdf:RDF><cc:Work
         rdf:about=""><dc:format>image/svg+xml</dc:format><dc:type
           rdf:resource="http://purl.org/dc/dcmitype/StillImage" /></cc:Work></rdf:RDF></metadata><defs
     id="defs6" /><g
     transform="matrix(1.3333333,0,0,-1.3333333,0,585.88)"
     id="g10"><g
       transform="scale(0.1)"
       id="g12"><path
         id="path14"
         style="fill:#221d1d;fill-opacity:1;fill-rule:nonzero;stroke:none"
         d="M 1594.49,982.121 601.129,978.551 1115.21,2109.04 Z M 1017.05,3347.52 H 656.492 L 613.066,3296.95 1021.89,2323.23 0,64.5586 42.9844,13.1016 h 91.9766 l 42.984,24.6093 364.59,799.3011 H 1651.74 l 341.97,-798.5511 43.35,-25.3593 h 368.09 l 43.34,50.7187 -1388.1,3258.2697 -43.34,25.43" /><path
         id="path16"
         style="fill:#221d1d;fill-opacity:1;fill-rule:nonzero;stroke:none"
         d="M 5642.3,3361.8 4721.18,687.52 3489.85,3323.2 l -42.8,24.32 h -398.87 l -42.72,-52.14 348.62,-726.56 -343.86,-2513.3317 45.67,-42.3867 h 91.98 L 3193.55,47.082 3487.96,2304.72 4585.42,0 4672.28,3.57813 5474.77,2334.46 5924.97,45.0703 5970.28,13.1016 h 345.12 l 45.41,44.0195 -628.95,3300.1389 -89.56,4.54" /><path
         id="path18"
         style="fill:#221d1d;fill-opacity:1;fill-rule:nonzero;stroke:none"
         d="m 9213.96,142.578 -1674.33,1.563 V 1745.2 l 1448.68,-0.74 34.45,28.56 v 65.22 l -34.37,28.56 -1448.76,1.86 V 3215.5 l 1663.68,1.57 34.46,28.56 v 65.23 l -34.46,28.56 h -2043.7 l -34.45,-28.56 V 48.7891 l 34.45,-28.5508 h 2054.35 l 34.46,28.5508 V 114.02 l -34.46,28.558" /><path
         id="path20"
         style="fill:#221d1d;fill-opacity:1;fill-rule:nonzero;stroke:none"
         d="m 7638.06,3722.96 1186.55,560.4 19.1,40.48 -27.69,59.07 -43.32,11.24 -1186.56,-560.41 -19.08,-40.47 27.68,-59.07 43.32,-11.24" /><path
         id="path22"
         style="fill:#221d1d;fill-opacity:1;fill-rule:nonzero;stroke:none"
         d="m 428.16,3798.71 706.75,445.69 706.76,-445.69 44.38,5.7 34.9,55.1 -13.83,42.56 -747.12,473.11 h -50.17 l -747.127,-473.11 -13.832,-42.56 34.895,-55.1 44.394,-5.7" /></g></g></svg>