<svg width="12" height="9" viewBox="0 0 12 9" version="1.1" xmlns="http://www.w3.org/2000/svg" xmlns:xlink="http://www.w3.org/1999/xlink"><defs><path id="path-1" d="M.86.515h11.076V9H.86z"/></defs><g id="PHASE-1-FINAL" stroke="none" stroke-width="1" fill="none" fill-rule="evenodd"><g id="HOME—DESKTOP-Copy-8" transform="translate(-1102 -1825)"><g id="Group-11" transform="translate(1027 1825)"><g id="Group-10" transform="translate(75)"><mask id="mask-2" fill="#fff"><use xlink:href="#path-1"/></mask><path d="M11.145 8.036V3.407a3.591 3.591 0 01-.426.398 86.284 86.284 0 00-2.634 2.037c-.21.172-.38.307-.513.404-.132.096-.31.194-.534.292a1.587 1.587 0 01-.634.148h-.012c-.198 0-.41-.05-.634-.148a2.886 2.886 0 01-.535-.292 12.18 12.18 0 01-.512-.404 87.458 87.458 0 00-2.634-2.037 3.591 3.591 0 01-.426-.398v4.629c0 .052.019.097.059.136a.192.192 0 00.138.056h9.1a.19.19 0 00.138-.056.183.183 0 00.06-.136m0-6.334v-.148l-.003-.078a.189.189 0 00-.019-.076l-.035-.054a.11.11 0 00-.055-.045.228.228 0 00-.086-.015h-9.1a.19.19 0 00-.138.057.183.183 0 00-.06.135c0 .675.303 1.246.909 1.712.796.611 1.622 1.248 2.48 1.91l.215.18c.12.097.214.172.285.224.07.053.161.116.275.19.113.075.217.13.313.167a.745.745 0 00.265.054h.012a.741.741 0 00.265-.054c.095-.037.2-.092.313-.167a5.198 5.198 0 00.56-.415 12.8 12.8 0 01.216-.178 606.9 606.9 0 012.48-1.91c.22-.174.428-.405.62-.696.191-.292.287-.556.287-.793m.791-.224v6.558a.917.917 0 01-.29.681.965.965 0 01-.698.283h-9.1a.965.965 0 01-.698-.283.917.917 0 01-.29-.681V1.478c0-.264.096-.492.29-.68a.963.963 0 01.698-.283h9.1c.271 0 .505.094.698.283.194.188.29.416.29.68" id="Fill-8" fill="#231F20" mask="url(#mask-2)"/></g></g></g></g></svg>