<?xml version="1.0" encoding="UTF-8"?>
<svg width="12px" height="9px" viewBox="0 0 12 9" version="1.1" xmlns="http://www.w3.org/2000/svg" xmlns:xlink="http://www.w3.org/1999/xlink">
    <!-- Generator: Sketch 60 (88103) - https://sketch.com -->
    <title>Group 10</title>
    <desc>Created with Sketch.</desc>
    <defs>
        <polygon id="path-1" points="0.859569231 0.51453 11.9363077 0.51453 11.9363077 8.99973 0.859569231 8.99973"></polygon>
    </defs>
    <g id="PHASE-1-FINAL" stroke="none" stroke-width="1" fill="none" fill-rule="evenodd">
        <g id="HOME—DESKTOP-Copy-8" transform="translate(-1102.000000, -1825.000000)">
            <g id="Group-11" transform="translate(1027.000000, 1825.000000)">
                <g id="Group-10" transform="translate(75.000000, 0.000000)">
                    <mask id="mask-2" fill="white">
                        <use xlink:href="#path-1"></use>
                    </mask>
                    <g id="Clip-9"></g>
                    <path d="M11.1454154,8.03583 L11.1454154,3.40713 C11.0134154,3.55203 10.8712615,3.68433 10.7189538,3.80493 C9.61403077,4.63293 8.73618462,5.31153 8.08541538,5.84163 C7.87587692,6.01443 7.70418462,6.14943 7.57218462,6.24573 C7.44018462,6.34203 7.26203077,6.44013 7.03772308,6.53823 C6.81341538,6.63633 6.60203077,6.68583 6.40449231,6.68583 L6.39803077,6.68583 L6.39156923,6.68583 C6.19403077,6.68583 5.98264615,6.63633 5.75833846,6.53823 C5.53310769,6.44013 5.35587692,6.34203 5.22295385,6.24573 C5.09187692,6.14943 4.92018462,6.01443 4.71064615,5.84163 C4.05895385,5.31153 3.18203077,4.63293 2.07710769,3.80493 C1.9248,3.68433 1.78264615,3.55203 1.65064615,3.40713 L1.65064615,8.03583 C1.65064615,8.08803 1.67003077,8.13303 1.70972308,8.17173 C1.74849231,8.20953 1.79464615,8.22843 1.84818462,8.22843 L10.9478769,8.22843 C11.0004923,8.22843 11.0475692,8.20953 11.0863385,8.17173 C11.1260308,8.13303 11.1454154,8.08803 11.1454154,8.03583 M11.1454154,1.70163 L11.1454154,1.63593 L11.1454154,1.55403 C11.1454154,1.53603 11.1444923,1.50993 11.1426462,1.47573 C11.1398769,1.44153 11.1334154,1.41633 11.1241846,1.40013 C11.1131077,1.38393 11.1020308,1.36593 11.0891077,1.34613 C11.0771077,1.32633 11.0586462,1.31103 11.0337231,1.30113 C11.0097231,1.29123 10.9801846,1.28583 10.9478769,1.28583 L1.84818462,1.28583 C1.79464615,1.28583 1.74849231,1.30473 1.70972308,1.34253 C1.67003077,1.38123 1.65064615,1.42623 1.65064615,1.47843 C1.65064615,2.15343 1.95341538,2.72403 2.55895385,3.19023 C3.35464615,3.80133 4.1808,4.43763 5.03833846,5.10093 C5.06326154,5.12073 5.13526154,5.18013 5.25433846,5.27913 C5.37433846,5.37723 5.46849231,5.45193 5.53864615,5.50413 C5.6088,5.55723 5.70018462,5.62023 5.81372308,5.69403 C5.92726154,5.76873 6.03064615,5.82363 6.12664615,5.86053 C6.2208,5.89653 6.30941538,5.91453 6.39156923,5.91453 L6.39803077,5.91453 L6.40449231,5.91453 C6.48664615,5.91453 6.57526154,5.89653 6.66941538,5.86053 C6.76449231,5.82363 6.8688,5.76873 6.98233846,5.69403 C7.09495385,5.62023 7.18726154,5.55723 7.25741538,5.50413 C7.32756923,5.45193 7.42172308,5.37723 7.54172308,5.27913 C7.6608,5.18013 7.7328,5.12073 7.75772308,5.10093 C8.61526154,4.43763 9.44141538,3.80133 10.2371077,3.19023 C10.4586462,3.01743 10.6663385,2.78613 10.8574154,2.49453 C11.0494154,2.20293 11.1454154,1.93923 11.1454154,1.70163 M11.9364923,1.47843 L11.9364923,8.03583 C11.9364923,8.30133 11.8395692,8.52813 11.6457231,8.71713 C11.4528,8.90523 11.2192615,8.99973 10.9478769,8.99973 L1.84818462,8.99973 C1.5768,8.99973 1.34326154,8.90523 1.15033846,8.71713 C0.956492308,8.52813 0.859569231,8.30133 0.859569231,8.03583 L0.859569231,1.47843 C0.859569231,1.21383 0.956492308,0.98613 1.15033846,0.79803 C1.34326154,0.60903 1.5768,0.51453 1.84818462,0.51453 L10.9478769,0.51453 C11.2192615,0.51453 11.4528,0.60903 11.6457231,0.79803 C11.8395692,0.98613 11.9364923,1.21383 11.9364923,1.47843" id="Fill-8" fill="#231F20" mask="url(#mask-2)"></path>
                </g>
            </g>
        </g>
    </g>
</svg>