<?xml version="1.0" encoding="UTF-8"?>
<svg width="8px" height="15px" viewBox="0 0 8 15" version="1.1" xmlns="http://www.w3.org/2000/svg" xmlns:xlink="http://www.w3.org/1999/xlink">
    <!-- Generator: Sketch 60 (88103) - https://sketch.com -->
    <title>facebook</title>
    <desc>Created with Sketch.</desc>
    <defs>
        <polygon id="path-1" points="0.0419047619 0.252573529 7.38920635 0.252573529 7.38920635 15 0.0419047619 15"></polygon>
    </defs>
    <g id="PHASE-1-FINAL" stroke="none" stroke-width="1" fill="none" fill-rule="evenodd">
        <g id="HOME—DESKTOP-Copy-9" transform="translate(-712.000000, -2544.000000)">
            <g id="Group-5" transform="translate(0.000000, 1621.000000)">
                <g id="Group-4" transform="translate(611.000000, 923.000000)">
                    <g id="facebook" transform="translate(101.500000, 0.000000)">
                        <mask id="mask-2" fill="white">
                            <use xlink:href="#path-1"></use>
                        </mask>
                        <g id="Clip-7"></g>
                        <path d="M7.38920635,0.358455882 L7.38920635,2.69845588 L6.05460317,2.69845588 C5.56571429,2.69845588 5.23809524,2.80566176 5.06793651,3.01742647 C4.89777778,3.23051471 4.81269841,3.54948529 4.81269841,3.97433824 L4.81269841,5.64992647 L7.30412698,5.64992647 L6.97269841,8.27316176 L4.81269841,8.27316176 L4.81269841,15.0006618 L2.21079365,15.0006618 L2.21079365,8.27316176 L0.0419047619,8.27316176 L0.0419047619,5.64992647 L2.21079365,5.64992647 L2.21079365,3.71757353 C2.21079365,2.61904412 2.50539683,1.76669118 3.09460317,1.16051471 C3.68507937,0.555661765 4.46984127,0.252573529 5.45015873,0.252573529 C6.2831746,0.252573529 6.92952381,0.288308824 7.38920635,0.358455882" id="Fill-6" fill="#5B574E" mask="url(#mask-2)"></path>
                    </g>
                </g>
            </g>
        </g>
    </g>
</svg>