<?xml version="1.0" encoding="UTF-8"?>
<svg width="12px" height="14px" viewBox="0 0 12 14" version="1.1" xmlns="http://www.w3.org/2000/svg" xmlns:xlink="http://www.w3.org/1999/xlink">
    <!-- Generator: Sketch 60 (88103) - https://sketch.com -->
    <title>pinterest</title>
    <desc>Created with Sketch.</desc>
    <g id="PHASE-1-FINAL" stroke="none" stroke-width="1" fill="none" fill-rule="evenodd">
        <g id="HOME—DESKTOP-Copy-9" transform="translate(-662.000000, -2545.000000)" fill="#5B574E">
            <g id="Group-5" transform="translate(0.000000, 1621.000000)">
                <g id="Group-4" transform="translate(611.000000, 923.000000)">
                    <path d="M51.5,6.02306381 C51.5,5.41748183 51.606522,4.84707888 51.8221328,4.31059858 C52.0364602,3.77537467 52.332925,3.30799605 52.7115272,2.90971911 C53.0901295,2.51269856 53.5252013,2.16719016 54.0180259,1.87570672 C54.5108505,1.58422328 55.0408937,1.3643543 55.6081554,1.21861258 C56.1754171,1.07412725 56.7542294,1 57.3445922,1 C58.2493875,1 59.0912962,1.18720273 59.8703185,1.56035179 C60.6493408,1.93350085 61.2833392,2.47626312 61.7697468,3.18863861 C62.2574379,3.90101409 62.5,4.70510634 62.5,5.60342816 C62.5,6.14116486 62.4460973,6.6688504 62.3370085,7.183972 C62.2279197,7.70035 62.0572279,8.19662568 61.8210827,8.67279907 C61.586221,9.15022884 61.3000233,9.56986449 60.9624898,9.931706 C60.6236729,10.2922911 60.2091355,10.5812618 59.7163108,10.7973616 C59.2234862,11.0134614 58.6818924,11.1215113 58.0915296,11.1215113 C57.7026601,11.1215113 57.3150741,11.0323073 56.9313382,10.8526429 C56.5476024,10.6729786 56.2729553,10.4267253 56.1061136,10.1113704 C56.0483608,10.3312393 55.9687901,10.6465943 55.8661183,11.0586916 C55.7621631,11.4707888 55.6954264,11.7371444 55.6646249,11.8577582 C55.63254,11.9783721 55.5735037,12.1768823 55.487516,12.4558018 C55.4015284,12.7322086 55.3270914,12.9319752 55.2642049,13.0525891 C55.2013184,13.1732029 55.1101972,13.3490981 54.9895578,13.5790182 C54.8689184,13.8089383 54.7367285,14.0262945 54.5942714,14.2310868 C54.4505309,14.4346226 54.273422,14.6783631 54.0616614,14.958539 L53.9410221,15 L53.8627348,14.9158216 C53.7767472,14.0350893 53.7343951,13.5086601 53.7343951,13.3340214 C53.7343951,12.8188998 53.7959981,12.2397021 53.9192043,11.5976846 C54.0424105,10.9544108 54.2323533,10.1490622 54.4915996,9.17786951 C54.7482791,8.20793323 54.8971532,7.63878668 54.9382219,7.47042987 C54.7546961,7.10607556 54.6622914,6.63115857 54.6622914,6.04819169 C54.6622914,5.58332585 54.8111656,5.14610069 55.1101972,4.7365162 C55.406662,4.32693171 55.7852643,4.12213946 56.2434372,4.12213946 C56.5938047,4.12213946 56.865885,4.23521493 57.0609614,4.46262227 C57.2547544,4.69002962 57.3522926,4.97648748 57.3522926,5.32450866 C57.3522926,5.69514493 57.2265197,6.23162524 56.9749737,6.93143678 C56.7221444,7.63250471 56.5963715,8.15767747 56.5963715,8.50569864 C56.5963715,8.8587454 56.7247112,9.15148524 56.9826741,9.38391815 C57.240637,9.61760747 57.5525026,9.73319573 57.9195543,9.73319573 C58.2352701,9.73319573 58.5278847,9.66283766 58.7961148,9.52337791 C59.0656283,9.38266176 59.2902228,9.19168985 59.4711819,8.95171857 C59.6521409,8.71049089 59.8125656,8.44413533 59.952456,8.15139549 C60.0923463,7.85991205 60.2014351,7.5495827 60.2784389,7.22292022 C60.3567262,6.89374495 60.4131957,6.5821592 60.4504142,6.28816297 C60.4876327,5.99416674 60.5068837,5.71524724 60.5068837,5.45140447 C60.5068837,4.48021179 60.1924513,3.72511891 59.5661533,3.18361303 C58.9385719,2.64336355 58.1197643,2.37198241 57.1122973,2.37198241 C55.9662233,2.37198241 55.0088088,2.73508032 54.2413371,3.46127614 C53.4738654,4.18747196 53.0901295,5.10840887 53.0901295,6.22534326 C53.0901295,6.47159652 53.1260646,6.71031141 53.1979349,6.94023154 C53.2685218,7.17015166 53.3455256,7.35232882 53.4289464,7.48801938 C53.5123673,7.62119716 53.5893711,7.74934937 53.6612414,7.86996321 C53.7331117,7.99057704 53.7690468,8.07601185 53.7690468,8.12626761 C53.7690468,8.28331688 53.7254113,8.48810913 53.6394236,8.74064435 C53.5547194,8.99317957 53.4481974,9.11881899 53.3211411,9.11881899 C53.3108739,9.11881899 53.2621048,9.11128062 53.1761171,9.09369111 C52.8835025,9.0095127 52.6242562,8.85246343 52.3983783,8.6225433 C52.1712169,8.39262317 51.9966748,8.12752401 51.8747521,7.8285022 C51.7502625,7.528224 51.6578579,7.22543301 51.5949714,6.91887283 C51.5308015,6.61356906 51.5,6.31454725 51.5,6.02306381" id="pinterest"></path>
                </g>
            </g>
        </g>
    </g>
</svg>