<svg xmlns="http://www.w3.org/2000/svg" width="22.206" height="22.2" viewBox="0 0 22.206 22.2"><g id="shopping-cart" data-name="shopping-cart" transform="translate(.103 .1)"><g id="Group_3" data-name="Group 3"><path id="Fill_1" data-name="Fill 1" d="M21.541 22H.458a.456.456 0 01-.434-.6L4.608 7.646a.455.455 0 01.433-.313h1.375V3.667C6.416 1.508 8.112 0 10.541 0h.917c2.429 0 4.125 1.508 4.125 3.667v3.666h1.375a.462.462 0 01.436.313L21.976 21.4a.456.456 0 01-.436.6zM5.371 8.25L1.094 21.083h19.811L16.628 8.25h-1.045v1.833h-.916V8.25H7.333v1.833h-.917V8.25zm5.17-7.333c-1.6 0-3.208.85-3.208 2.75v3.666h7.333V3.667c0-1.9-1.611-2.75-3.208-2.75z" fill="#b3a091" stroke="#b3a091" stroke-miterlimit="10" stroke-width=".2"/></g></g></svg>