<?xml version="1.0" encoding="UTF-8"?>
<svg width="14px" height="11px" viewBox="0 0 14 11" version="1.1" xmlns="http://www.w3.org/2000/svg" xmlns:xlink="http://www.w3.org/1999/xlink">
    <!-- Generator: Sketch 60 (88103) - https://sketch.com -->
    <title>twitter</title>
    <desc>Created with Sketch.</desc>
    <g id="PHASE-1-FINAL" stroke="none" stroke-width="1" fill="none" fill-rule="evenodd">
        <g id="HOME—DESKTOP-Copy-9" transform="translate(-759.000000, -2546.000000)" fill="#5B574E">
            <g id="Group-5" transform="translate(0.000000, 1621.000000)">
                <g id="Group-4" transform="translate(611.000000, 923.000000)">
                    <path d="M161.5,3.30634624 C161.131704,3.86712552 160.685806,4.3470602 160.16354,4.74230051 C160.168467,4.82186188 160.172162,4.94248717 160.172162,5.10289314 C160.172162,5.84717685 160.067463,6.59146057 159.858063,7.33189454 C159.649896,8.07489501 159.332102,8.78709753 158.905912,9.46721885 C158.479723,10.1499067 157.972238,10.7530331 157.384688,11.2765982 C156.795907,11.8014466 156.086413,12.2185021 155.256206,12.5316146 C154.426,12.8434438 153.5379,13 152.591908,13 C151.101478,13 149.737919,12.5842277 148.5,11.7539664 C148.693386,11.7770649 148.907713,11.7873308 149.144211,11.7873308 C150.380898,11.7873308 151.483324,11.3920905 152.451488,10.6028931 C151.875024,10.5913439 151.357684,10.4065562 150.900701,10.0472469 C150.443718,9.69050397 150.130851,9.23366776 149.960868,8.67802147 C150.141937,8.70625292 150.309456,8.72036864 150.463426,8.72036864 C150.699924,8.72036864 150.933959,8.68828745 151.164298,8.62540831 C150.548418,8.49323378 150.038469,8.17370509 149.634451,7.66682221 C149.230434,7.15993934 149.028425,6.57221185 149.028425,5.90107326 L149.028425,5.86770882 C149.40288,6.08586094 149.803203,6.20263649 150.233087,6.21931871 C149.869718,5.96780215 149.581486,5.63800747 149.365928,5.23121792 C149.152833,4.82442837 149.04567,4.38299113 149.04567,3.90818945 C149.04567,3.40387308 149.166382,2.93677088 149.407807,2.50688287 C150.072958,3.36024265 150.882225,4.04421372 151.836839,4.55751283 C152.791453,5.0695287 153.812583,5.35440971 154.901459,5.41215586 C154.857116,5.19400373 154.834944,4.98226785 154.834944,4.77566496 C154.834944,4.00828278 155.094846,3.35382641 155.614648,2.81229585 C156.134451,2.27076528 156.762649,2 157.499242,2 C158.269092,2 158.91823,2.29258049 159.446655,2.87774148 C160.045291,2.75711619 160.609437,2.53254783 161.137862,2.20660289 C160.93339,2.86490901 160.542922,3.37564162 159.965226,3.73623425 C160.477639,3.67977135 160.988819,3.5360476 161.5,3.30634624" id="twitter"></path>
                </g>
            </g>
        </g>
    </g>
</svg>